<svg xmlns="http://www.w3.org/2000/svg" viewBox="0 0 800 500">
  <defs>
    <linearGradient id="osGrad" x1="0%" y1="0%" x2="100%" y2="100%">
      <stop offset="0%" style="stop-color:#581c87"/>
      <stop offset="50%" style="stop-color:#0f172a"/>
      <stop offset="100%" style="stop-color:#06b6d4"/>
    </linearGradient>
    <linearGradient id="osCyan" x1="0%" y1="0%" x2="100%" y2="100%">
      <stop offset="0%" style="stop-color:#06b6d4"/>
      <stop offset="100%" style="stop-color:#3b82f6"/>
    </linearGradient>
    <filter id="glow">
      <feGaussianBlur stdDeviation="3" result="coloredBlur"/>
      <feMerge>
        <feMergeNode in="coloredBlur"/>
        <feMergeNode in="SourceGraphic"/>
      </feMerge>
    </filter>
  </defs>
  <rect width="800" height="500" fill="#0f172a" rx="16"/>
  <circle cx="400" cy="250" r="200" fill="url(#osGrad)" opacity="0.3"/>
  <circle cx="400" cy="250" r="150" fill="#06b6d4" fill-opacity="0.1" stroke="#06b6d4" stroke-width="2"/>
  <circle cx="400" cy="250" r="100" fill="#06b6d4" fill-opacity="0.15"/>
  <g filter="url(#glow)">
    <circle cx="400" cy="250" r="50" fill="#06b6d4" fill-opacity="0.3"/>
    <path d="M400 180 L410 220 L450 220 L418 245 L430 285 L400 260 L370 285 L382 245 L350 220 L390 220 Z" fill="url(#osCyan)"/>
  </g>
  <rect x="100" y="100" width="150" height="80" fill="#1e293b" rx="8" opacity="0.8"/>
  <rect x="110" y="115" width="100" height="8" fill="#06b6d4" fill-opacity="0.5" rx="2"/>
  <rect x="110" y="130" width="80" height="6" fill="#ffffff" fill-opacity="0.3" rx="1"/>
  <rect x="110" y="142" width="90" height="6" fill="#ffffff" fill-opacity="0.3" rx="1"/>
  <rect x="110" y="154" width="70" height="6" fill="#ffffff" fill-opacity="0.3" rx="1"/>
  <rect x="550" y="100" width="150" height="80" fill="#1e293b" rx="8" opacity="0.8"/>
  <rect x="560" y="115" width="100" height="8" fill="#06b6d4" fill-opacity="0.5" rx="2"/>
  <rect x="560" y="130" width="80" height="6" fill="#ffffff" fill-opacity="0.3" rx="1"/>
  <rect x="560" y="142" width="90" height="6" fill="#ffffff" fill-opacity="0.3" rx="1"/>
  <rect x="560" y="154" width="70" height="6" fill="#ffffff" fill-opacity="0.3" rx="1"/>
  <rect x="100" y="320" width="150" height="80" fill="#1e293b" rx="8" opacity="0.8"/>
  <rect x="110" y="335" width="100" height="8" fill="#06b6d4" fill-opacity="0.5" rx="2"/>
  <rect x="110" y="350" width="80" height="6" fill="#ffffff" fill-opacity="0.3" rx="1"/>
  <rect x="110" y="362" width="90" height="6" fill="#ffffff" fill-opacity="0.3" rx="1"/>
  <rect x="110" y="374" width="70" height="6" fill="#ffffff" fill-opacity="0.3" rx="1"/>
  <rect x="550" y="320" width="150" height="80" fill="#1e293b" rx="8" opacity="0.8"/>
  <rect x="560" y="335" width="100" height="8" fill="#06b6d4" fill-opacity="0.5" rx="2"/>
  <rect x="560" y="350" width="80" height="6" fill="#ffffff" fill-opacity="0.3" rx="1"/>
  <rect x="560" y="362" width="90" height="6" fill="#ffffff" fill-opacity="0.3" rx="1"/>
  <rect x="560" y="374" width="70" height="6" fill="#ffffff" fill-opacity="0.3" rx="1"/>
  <path d="M250 140 L350 210" stroke="#06b6d4" stroke-width="1" stroke-opacity="0.3"/>
  <path d="M550 140 L450 210" stroke="#06b6d4" stroke-width="1" stroke-opacity="0.3"/>
  <path d="M250 360 L350 290" stroke="#06b6d4" stroke-width="1" stroke-opacity="0.3"/>
  <path d="M550 360 L450 290" stroke="#06b6d4" stroke-width="1" stroke-opacity="0.3"/>
</svg>