<svg xmlns="http://www.w3.org/2000/svg" viewBox="0 0 1440 800" preserveAspectRatio="xMidYMid slice">
  <defs>
    <linearGradient id="ilGrad1" x1="0%" y1="0%" x2="100%" y2="100%">
      <stop offset="0%" style="stop-color:#0f172a;stop-opacity:1" />
      <stop offset="50%" style="stop-color:#1e1b4b;stop-opacity:1" />
      <stop offset="100%" style="stop-color:#0f172a;stop-opacity:1" />
    </linearGradient>
    <linearGradient id="ilCyan" x1="0%" y1="0%" x2="100%" y2="100%">
      <stop offset="0%" style="stop-color:#06b6d4;stop-opacity:0.2" />
      <stop offset="100%" style="stop-color:#3b82f6;stop-opacity:0.05" />
    </linearGradient>
    <pattern id="gridPattern" x="0" y="0" width="60" height="60" patternUnits="userSpaceOnUse">
      <path d="M 60 0 L 0 0 0 60" fill="none" stroke="#06b6d4" stroke-width="0.5" stroke-opacity="0.1"/>
    </pattern>
    <pattern id="circuitPattern" x="0" y="0" width="120" height="120" patternUnits="userSpaceOnUse">
      <circle cx="60" cy="60" r="3" fill="#06b6d4" fill-opacity="0.3"/>
      <circle cx="0" cy="0" r="3" fill="#06b6d4" fill-opacity="0.3"/>
      <circle cx="120" cy="0" r="3" fill="#06b6d4" fill-opacity="0.3"/>
      <circle cx="0" cy="120" r="3" fill="#06b6d4" fill-opacity="0.3"/>
      <circle cx="120" cy="120" r="3" fill="#06b6d4" fill-opacity="0.3"/>
      <path d="M60 60 L60 0 M60 60 L120 60 M60 60 L60 120 M60 60 L0 60" stroke="#06b6d4" stroke-width="1" stroke-opacity="0.15"/>
    </pattern>
  </defs>
  <rect width="1440" height="800" fill="url(#ilGrad1)"/>
  <rect width="1440" height="800" fill="url(#gridPattern)"/>
  <rect width="1440" height="800" fill="url(#circuitPattern)"/>
  <circle cx="200" cy="200" r="400" fill="url(#ilCyan)" opacity="0.3"/>
  <circle cx="1300" cy="600" r="350" fill="url(#ilCyan)" opacity="0.2"/>
</svg>