<svg xmlns="http://www.w3.org/2000/svg" viewBox="0 0 600 400">
  <defs>
    <linearGradient id="tmGrad" x1="0%" y1="0%" x2="100%" y2="100%">
      <stop offset="0%" style="stop-color:#0f172a"/>
      <stop offset="100%" style="stop-color:#1e1b4b"/>
    </linearGradient>
    <linearGradient id="tmCyan" x1="0%" y1="0%" x2="100%" y2="100%">
      <stop offset="0%" style="stop-color:#06b6d4"/>
      <stop offset="100%" style="stop-color:#3b82f6"/>
    </linearGradient>
  </defs>
  <rect width="600" height="400" fill="#0f172a" fill-opacity="0.05" rx="16"/>
  <rect x="80" y="100" width="200" height="200" fill="url(#tmGrad)" rx="8"/>
  <rect x="100" y="120" width="160" height="100" fill="#1e293b" rx="4"/>
  <rect x="110" y="135" width="60" height="70" fill="#06b6d4" fill-opacity="0.2" rx="2"/>
  <rect x="180" y="135" width="70" height="8" fill="#06b6d4" fill-opacity="0.4" rx="1"/>
  <rect x="180" y="150" width="50" height="6" fill="#ffffff" fill-opacity="0.3" rx="1"/>
  <rect x="180" y="162" width="60" height="6" fill="#ffffff" fill-opacity="0.3" rx="1"/>
  <rect x="180" y="174" width="40" height="6" fill="#ffffff" fill-opacity="0.3" rx="1"/>
  <rect x="100" y="230" width="70" height="50" fill="#1e293b" rx="4"/>
  <rect x="110" y="240" width="50" height="30" fill="#06b6d4" fill-opacity="0.2" rx="2"/>
  <rect x="180" y="230" width="80" height="50" fill="#1e293b" rx="4"/>
  <rect x="190" y="240" width="60" height="30" fill="#06b6d4" fill-opacity="0.2" rx="2"/>
  <rect x="320" y="80" width="200" height="240" fill="url(#tmGrad)" rx="8"/>
  <rect x="340" y="100" width="160" height="90" fill="#1e293b" rx="4"/>
  <circle cx="420" cy="145" r="30" fill="#06b6d4" fill-opacity="0.2"/>
  <path d="M420 125 L426 140 L442 140 L429 150 L435 165 L420 155 L405 165 L411 150 L398 140 L414 140 Z" fill="url(#tmCyan)" transform="scale(0.6) translate(280 96)"/>
  <rect x="360" y="200" width="120" height="50" fill="#1e293b" rx="4"/>
  <rect x="370" y="210" width="100" height="8" fill="#06b6d4" fill-opacity="0.4" rx="2"/>
  <rect x="370" y="225" width="80" height="6" fill="#ffffff" fill-opacity="0.3" rx="1"/>
  <rect x="370" y="237" width="90" height="6" fill="#ffffff" fill-opacity="0.3" rx="1"/>
  <rect x="340" y="260" width="70" height="45" fill="#1e293b" rx="4"/>
  <rect x="350" y="270" width="50" height="25" fill="#06b6d4" fill-opacity="0.2" rx="2"/>
  <rect x="420" y="260" width="80" height="45" fill="#1e293b" rx="4"/>
  <rect x="430" y="270" width="60" height="25" fill="#06b6d4" fill-opacity="0.2" rx="2"/>
</svg>