<svg xmlns="http://www.w3.org/2000/svg" viewBox="0 0 600 400">
  <defs>
    <linearGradient id="aiGrad" x1="0%" y1="0%" x2="100%" y2="100%">
      <stop offset="0%" style="stop-color:#0f172a"/>
      <stop offset="100%" style="stop-color:#1e1b4b"/>
    </linearGradient>
    <linearGradient id="aiCyan" x1="0%" y1="0%" x2="100%" y2="100%">
      <stop offset="0%" style="stop-color:#06b6d4"/>
      <stop offset="100%" style="stop-color:#3b82f6"/>
    </linearGradient>
  </defs>
  <rect width="600" height="400" fill="#0f172a" fill-opacity="0.05" rx="16"/>
  <rect x="50" y="50" width="500" height="300" fill="url(#aiGrad)" rx="12"/>
  <circle cx="300" cy="200" r="80" fill="#06b6d4" fill-opacity="0.1" stroke="#06b6d4" stroke-width="2"/>
  <circle cx="300" cy="200" r="50" fill="#06b6d4" fill-opacity="0.15"/>
  <path d="M300 140 L310 170 L340 170 L315 190 L325 220 L300 200 L275 220 L285 190 L260 170 L290 170 Z" fill="url(#aiCyan)"/>
  <circle cx="150" cy="150" r="30" fill="#06b6d4" fill-opacity="0.1" stroke="#06b6d4" stroke-width="1"/>
  <circle cx="450" cy="150" r="30" fill="#06b6d4" fill-opacity="0.1" stroke="#06b6d4" stroke-width="1"/>
  <circle cx="150" cy="250" r="30" fill="#06b6d4" fill-opacity="0.1" stroke="#06b6d4" stroke-width="1"/>
  <circle cx="450" cy="250" r="30" fill="#06b6d4" fill-opacity="0.1" stroke="#06b6d4" stroke-width="1"/>
  <path d="M180 150 L270 180" stroke="#06b6d4" stroke-width="1" stroke-opacity="0.5"/>
  <path d="M330 180 L420 150" stroke="#06b6d4" stroke-width="1" stroke-opacity="0.5"/>
  <path d="M180 250 L270 220" stroke="#06b6d4" stroke-width="1" stroke-opacity="0.5"/>
  <path d="M330 220 L420 250" stroke="#06b6d4" stroke-width="1" stroke-opacity="0.5"/>
  <rect x="100" y="320" width="400" height="20" fill="#06b6d4" fill-opacity="0.1" rx="4"/>
  <rect x="120" y="324" width="80" height="12" fill="#06b6d4" fill-opacity="0.3" rx="2"/>
  <rect x="210" y="324" width="60" height="12" fill="#06b6d4" fill-opacity="0.2" rx="2"/>
  <rect x="280" y="324" width="100" height="12" fill="#06b6d4" fill-opacity="0.3" rx="2"/>
  <rect x="390" y="324" width="90" height="12" fill="#06b6d4" fill-opacity="0.2" rx="2"/>
</svg>