<svg xmlns="http://www.w3.org/2000/svg" viewBox="0 0 600 400">
  <defs>
    <linearGradient id="macGrad" x1="0%" y1="0%" x2="100%" y2="100%">
      <stop offset="0%" style="stop-color:#0f172a"/>
      <stop offset="100%" style="stop-color:#1e1b4b"/>
    </linearGradient>
    <linearGradient id="macCyan" x1="0%" y1="0%" x2="100%" y2="100%">
      <stop offset="0%" style="stop-color:#06b6d4"/>
      <stop offset="100%" style="stop-color:#3b82f6"/>
    </linearGradient>
  </defs>
  <rect width="600" height="400" fill="#0f172a" fill-opacity="0.05" rx="16"/>
  <rect x="150" y="80" width="300" height="200" fill="url(#macGrad)" rx="12"/>
  <rect x="160" y="90" width="280" height="20" fill="#1e293b" rx="4"/>
  <circle cx="175" cy="100" r="4" fill="#ef4444"/>
  <circle cx="190" cy="100" r="4" fill="#eab308"/>
  <circle cx="205" cy="100" r="4" fill="#22c55e"/>
  <rect x="170" y="125" width="260" height="140" fill="#1e293b" rx="4"/>
  <rect x="185" y="140" width="100" height="80" fill="#06b6d4" fill-opacity="0.2" rx="4"/>
  <rect x="195" y="150" width="80" height="8" fill="#06b6d4" fill-opacity="0.5" rx="2"/>
  <rect x="195" y="165" width="60" height="6" fill="#ffffff" fill-opacity="0.3" rx="1"/>
  <rect x="195" y="178" width="70" height="6" fill="#ffffff" fill-opacity="0.3" rx="1"/>
  <rect x="195" y="191" width="50" height="6" fill="#ffffff" fill-opacity="0.3" rx="1"/>
  <rect x="300" y="140" width="120" height="40" fill="#1e293b" rx="4"/>
  <rect x="310" y="150" width="100" height="6" fill="#06b6d4" fill-opacity="0.4" rx="1"/>
  <rect x="310" y="162" width="80" height="6" fill="#ffffff" fill-opacity="0.2" rx="1"/>
  <rect x="300" y="190" width="120" height="70" fill="#1e293b" rx="4"/>
  <rect x="310" y="200" width="100" height="6" fill="#06b6d4" fill-opacity="0.4" rx="1"/>
  <rect x="310" y="215" width="80" height="6" fill="#ffffff" fill-opacity="0.2" rx="1"/>
  <rect x="310" y="228" width="90" height="6" fill="#ffffff" fill-opacity="0.2" rx="1"/>
  <rect x="310" y="241" width="60" height="6" fill="#ffffff" fill-opacity="0.2" rx="1"/>
  <rect x="200" y="300" width="200" height="40" fill="url(#macGrad)" rx="8"/>
  <rect x="220" y="314" width="160" height="12" fill="#06b6d4" fill-opacity="0.3" rx="2"/>
</svg>