<svg xmlns="http://www.w3.org/2000/svg" viewBox="0 0 600 400">
  <defs>
    <linearGradient id="webGrad" x1="0%" y1="0%" x2="100%" y2="100%">
      <stop offset="0%" style="stop-color:#0f172a"/>
      <stop offset="100%" style="stop-color:#1e1b4b"/>
    </linearGradient>
    <linearGradient id="webCyan" x1="0%" y1="0%" x2="100%" y2="100%">
      <stop offset="0%" style="stop-color:#06b6d4"/>
      <stop offset="100%" style="stop-color:#3b82f6"/>
    </linearGradient>
  </defs>
  <rect width="600" height="400" fill="#0f172a" fill-opacity="0.05" rx="16"/>
  <rect x="100" y="80" width="400" height="240" fill="url(#webGrad)" rx="12"/>
  <rect x="110" y="90" width="380" height="30" fill="#1e293b" rx="4"/>
  <circle cx="130" cy="105" r="6" fill="#ef4444"/>
  <circle cx="150" cy="105" r="6" fill="#eab308"/>
  <circle cx="170" cy="105" r="6" fill="#22c55e"/>
  <rect x="320" y="98" width="150" height="14" fill="#334155" rx="7"/>
  <rect x="120" y="135" width="120" height="170" fill="#1e293b" rx="4"/>
  <rect x="130" y="150" width="100" height="12" fill="#06b6d4" fill-opacity="0.4" rx="2"/>
  <rect x="130" y="170" width="80" height="8" fill="#ffffff" fill-opacity="0.2" rx="1"/>
  <rect x="130" y="185" width="90" height="8" fill="#ffffff" fill-opacity="0.2" rx="1"/>
  <rect x="130" y="200" width="70" height="8" fill="#ffffff" fill-opacity="0.2" rx="1"/>
  <rect x="130" y="220" width="100" height="60" fill="#06b6d4" fill-opacity="0.15" rx="4"/>
  <rect x="250" y="135" width="220" height="80" fill="#1e293b" rx="4"/>
  <rect x="260" y="150" width="100" height="10" fill="#06b6d4" fill-opacity="0.4" rx="2"/>
  <rect x="260" y="170" width="80" height="8" fill="#ffffff" fill-opacity="0.2" rx="1"/>
  <rect x="260" y="185" width="90" height="8" fill="#ffffff" fill-opacity="0.2" rx="1"/>
  <rect x="370" y="150" width="90" height="50" fill="#06b6d4" fill-opacity="0.2" rx="4"/>
  <rect x="250" y="225" width="220" height="80" fill="#1e293b" rx="4"/>
  <rect x="260" y="240" width="80" height="8" fill="#06b6d4" fill-opacity="0.4" rx="1"/>
  <rect x="260" y="255" width="100" height="8" fill="#ffffff" fill-opacity="0.2" rx="1"/>
  <rect x="260" y="270" width="70" height="8" fill="#ffffff" fill-opacity="0.2" rx="1"/>
  <rect x="380" y="240" width="80" height="50" fill="#06b6d4" fill-opacity="0.15" rx="4"/>
</svg>